<mxfile host="Electron" modified="2025-05-04T03:39:33.362Z" agent="Mozilla/5.0 (Macintosh; Intel Mac OS X 10_15_7) AppleWebKit/537.36 (KHTML, like Gecko) draw.io/21.8.2 Chrome/114.0.5735.289 Electron/25.8.1 Safari/537.36" etag="IjXhKHM6H8Une7TEYRtw" version="21.8.2" type="device">
  <diagram name="第 1 页" id="duqM5wkMjMGnsqbR5Hj9">
    <mxGraphModel dx="1670" dy="1752" grid="1" gridSize="10" guides="1" tooltips="1" connect="1" arrows="1" fold="1" page="1" pageScale="1" pageWidth="827" pageHeight="1169" math="0" shadow="0">
      <root>
        <mxCell id="0" />
        <mxCell id="1" parent="0" />
        <mxCell id="E8Tid6NeUANJwH3L4uXU-3" value="has a" style="edgeStyle=orthogonalEdgeStyle;rounded=0;orthogonalLoop=1;jettySize=auto;html=1;exitX=0;exitY=0.5;exitDx=0;exitDy=0;fontSize=13;" edge="1" parent="1" source="E8Tid6NeUANJwH3L4uXU-1" target="E8Tid6NeUANJwH3L4uXU-2">
          <mxGeometry relative="1" as="geometry" />
        </mxCell>
        <mxCell id="E8Tid6NeUANJwH3L4uXU-24" value="has a" style="edgeStyle=orthogonalEdgeStyle;rounded=0;orthogonalLoop=1;jettySize=auto;html=1;exitX=1;exitY=0.5;exitDx=0;exitDy=0;entryX=0;entryY=0.5;entryDx=0;entryDy=0;fontSize=13;" edge="1" parent="1" source="E8Tid6NeUANJwH3L4uXU-1" target="E8Tid6NeUANJwH3L4uXU-9">
          <mxGeometry relative="1" as="geometry" />
        </mxCell>
        <mxCell id="E8Tid6NeUANJwH3L4uXU-60" value="has a" style="edgeStyle=orthogonalEdgeStyle;rounded=0;orthogonalLoop=1;jettySize=auto;html=1;exitX=0.5;exitY=0;exitDx=0;exitDy=0;" edge="1" parent="1" source="E8Tid6NeUANJwH3L4uXU-1" target="E8Tid6NeUANJwH3L4uXU-59">
          <mxGeometry relative="1" as="geometry" />
        </mxCell>
        <mxCell id="E8Tid6NeUANJwH3L4uXU-1" value="Agent" style="rounded=0;whiteSpace=wrap;html=1;fillColor=#f8cecc;strokeColor=#b85450;fontSize=13;" vertex="1" parent="1">
          <mxGeometry x="440" y="80" width="280" height="40" as="geometry" />
        </mxCell>
        <mxCell id="E8Tid6NeUANJwH3L4uXU-2" value="skill" style="rounded=0;whiteSpace=wrap;html=1;fillColor=#e1d5e7;strokeColor=#9673a6;fontSize=13;" vertex="1" parent="1">
          <mxGeometry x="40" y="80" width="320" height="40" as="geometry" />
        </mxCell>
        <mxCell id="E8Tid6NeUANJwH3L4uXU-4" value="- id: str (uuid)&lt;br style=&quot;font-size: 13px;&quot;&gt;- name: string (human readable)&lt;br style=&quot;font-size: 13px;&quot;&gt;- description: string&lt;br style=&quot;font-size: 13px;&quot;&gt;- tags: List[string]&lt;br style=&quot;font-size: 13px;&quot;&gt;&amp;nbsp; //&amp;nbsp;Set of tag words describing classes of&lt;br style=&quot;font-size: 13px;&quot;&gt;&amp;nbsp; // capabilities for this specific&amp;nbsp;skill &lt;br style=&quot;font-size: 13px;&quot;&gt;&amp;nbsp; // (e.g. &quot;billing&lt;span style=&quot;background-color: initial; font-size: 13px;&quot;&gt;&quot;, &quot;customer support&quot;)&lt;/span&gt;&lt;br style=&quot;font-size: 13px;&quot;&gt;- examples: List[String]&lt;br style=&quot;font-size: 13px;&quot;&gt;&amp;nbsp; //&amp;nbsp;example prompts for tasks&lt;br style=&quot;font-size: 13px;&quot;&gt;&amp;nbsp; //&amp;nbsp;The set of interaction modes that the skill supports&lt;br style=&quot;font-size: 13px;&quot;&gt;- inputModes List[string]&lt;br style=&quot;font-size: 13px;&quot;&gt;&amp;nbsp; // supported types for input&lt;br style=&quot;font-size: 13px;&quot;&gt;- outputModes: List[String]&lt;br style=&quot;font-size: 13px;&quot;&gt;&amp;nbsp;//&amp;nbsp;supported types for output" style="rounded=0;whiteSpace=wrap;html=1;align=left;fontSize=13;" vertex="1" parent="1">
          <mxGeometry x="40" y="120" width="320" height="240" as="geometry" />
        </mxCell>
        <mxCell id="E8Tid6NeUANJwH3L4uXU-6" value="name: string (human readable)&lt;br style=&quot;font-size: 13px;&quot;&gt;description: string&lt;br style=&quot;font-size: 13px;&quot;&gt;id: string (uuid)&lt;br style=&quot;font-size: 13px;&quot;&gt;skills: List[skill]&lt;br style=&quot;font-size: 13px;&quot;&gt;messages: List[message]&lt;br style=&quot;font-size: 13px;&quot;&gt;// hold messages for stream&lt;br&gt;task_manager:&amp;nbsp;TaskManager" style="rounded=0;whiteSpace=wrap;html=1;align=left;fontSize=13;" vertex="1" parent="1">
          <mxGeometry x="440" y="120" width="280" height="160" as="geometry" />
        </mxCell>
        <mxCell id="E8Tid6NeUANJwH3L4uXU-7" value="Memory" style="rounded=0;whiteSpace=wrap;html=1;fillColor=#ffe6cc;strokeColor=#d79b00;fontSize=13;" vertex="1" parent="1">
          <mxGeometry x="-200" y="440" width="320" height="40" as="geometry" />
        </mxCell>
        <mxCell id="E8Tid6NeUANJwH3L4uXU-8" value="- id: str (uuid)&lt;br style=&quot;font-size: 13px;&quot;&gt;- name: string (human readable)&lt;br style=&quot;font-size: 13px;&quot;&gt;- description: string&lt;br style=&quot;font-size: 13px;&quot;&gt;- entities: List[string]:&lt;br style=&quot;font-size: 13px;&quot;&gt;&amp;nbsp; // what entities does this memory have, human name&lt;br style=&quot;font-size: 13px;&quot;&gt;&amp;nbsp; // emotion, subject&lt;br style=&quot;font-size: 13px;&quot;&gt;- query_count: int&lt;br style=&quot;font-size: 13px;&quot;&gt;- create_date: string (a datetime)&lt;br style=&quot;font-size: 13px;&quot;&gt;- last_access_date: string (a datetime)&lt;br style=&quot;font-size: 13px;&quot;&gt;- file_path: string" style="rounded=0;whiteSpace=wrap;html=1;align=left;fontSize=13;" vertex="1" parent="1">
          <mxGeometry x="-200" y="480" width="320" height="160" as="geometry" />
        </mxCell>
        <mxCell id="E8Tid6NeUANJwH3L4uXU-9" value="Messages" style="rounded=0;whiteSpace=wrap;html=1;fillColor=#d5e8d4;strokeColor=#82b366;fontSize=13;" vertex="1" parent="1">
          <mxGeometry x="1000" y="80" width="320" height="40" as="geometry" />
        </mxCell>
        <mxCell id="E8Tid6NeUANJwH3L4uXU-10" value="- id: str (uuid)&lt;br style=&quot;font-size: 13px;&quot;&gt;- tokens: int (the number of tokens used in a message)" style="rounded=0;whiteSpace=wrap;html=1;align=left;fontSize=13;" vertex="1" parent="1">
          <mxGeometry x="1000" y="120" width="320" height="80" as="geometry" />
        </mxCell>
        <mxCell id="E8Tid6NeUANJwH3L4uXU-18" style="edgeStyle=orthogonalEdgeStyle;rounded=0;orthogonalLoop=1;jettySize=auto;html=1;exitX=0.5;exitY=0;exitDx=0;exitDy=0;entryX=0.5;entryY=1;entryDx=0;entryDy=0;endArrow=block;endFill=0;fontSize=13;" edge="1" parent="1" source="E8Tid6NeUANJwH3L4uXU-13" target="E8Tid6NeUANJwH3L4uXU-10">
          <mxGeometry relative="1" as="geometry" />
        </mxCell>
        <mxCell id="E8Tid6NeUANJwH3L4uXU-13" value="AIMessage" style="rounded=0;whiteSpace=wrap;html=1;fillColor=#d5e8d4;strokeColor=#82b366;fontSize=13;" vertex="1" parent="1">
          <mxGeometry x="800" y="240" width="200" height="40" as="geometry" />
        </mxCell>
        <mxCell id="E8Tid6NeUANJwH3L4uXU-19" style="edgeStyle=orthogonalEdgeStyle;rounded=0;orthogonalLoop=1;jettySize=auto;html=1;exitX=0.5;exitY=0;exitDx=0;exitDy=0;entryX=0.5;entryY=1;entryDx=0;entryDy=0;endArrow=block;endFill=0;fontSize=13;" edge="1" parent="1" source="E8Tid6NeUANJwH3L4uXU-15" target="E8Tid6NeUANJwH3L4uXU-10">
          <mxGeometry relative="1" as="geometry" />
        </mxCell>
        <mxCell id="E8Tid6NeUANJwH3L4uXU-15" value="HumanMessage" style="rounded=0;whiteSpace=wrap;html=1;fillColor=#d5e8d4;strokeColor=#82b366;fontSize=13;" vertex="1" parent="1">
          <mxGeometry x="1060" y="240" width="200" height="40" as="geometry" />
        </mxCell>
        <mxCell id="E8Tid6NeUANJwH3L4uXU-20" style="edgeStyle=orthogonalEdgeStyle;rounded=0;orthogonalLoop=1;jettySize=auto;html=1;exitX=0.5;exitY=0;exitDx=0;exitDy=0;entryX=0.5;entryY=1;entryDx=0;entryDy=0;endArrow=block;endFill=0;fontSize=13;" edge="1" parent="1" source="E8Tid6NeUANJwH3L4uXU-16" target="E8Tid6NeUANJwH3L4uXU-10">
          <mxGeometry relative="1" as="geometry" />
        </mxCell>
        <mxCell id="E8Tid6NeUANJwH3L4uXU-16" value="SystemMessage" style="rounded=0;whiteSpace=wrap;html=1;fillColor=#d5e8d4;strokeColor=#82b366;fontSize=13;" vertex="1" parent="1">
          <mxGeometry x="1320" y="240" width="200" height="40" as="geometry" />
        </mxCell>
        <mxCell id="E8Tid6NeUANJwH3L4uXU-21" value="for content in the response from the model." style="rounded=0;whiteSpace=wrap;html=1;fontSize=13;" vertex="1" parent="1">
          <mxGeometry x="800" y="280" width="200" height="80" as="geometry" />
        </mxCell>
        <mxCell id="E8Tid6NeUANJwH3L4uXU-22" value="for content in the input from the user." style="rounded=0;whiteSpace=wrap;html=1;fontSize=13;" vertex="1" parent="1">
          <mxGeometry x="1060" y="280" width="200" height="80" as="geometry" />
        </mxCell>
        <mxCell id="E8Tid6NeUANJwH3L4uXU-23" value="for content which should be passed to direct the conversation" style="rounded=0;whiteSpace=wrap;html=1;fontSize=13;" vertex="1" parent="1">
          <mxGeometry x="1320" y="280" width="200" height="80" as="geometry" />
        </mxCell>
        <mxCell id="E8Tid6NeUANJwH3L4uXU-32" value="has a" style="edgeStyle=orthogonalEdgeStyle;rounded=0;orthogonalLoop=1;jettySize=auto;html=1;exitX=0;exitY=0.5;exitDx=0;exitDy=0;entryX=1;entryY=0.5;entryDx=0;entryDy=0;fontSize=13;" edge="1" parent="1" source="E8Tid6NeUANJwH3L4uXU-26" target="E8Tid6NeUANJwH3L4uXU-7">
          <mxGeometry relative="1" as="geometry" />
        </mxCell>
        <mxCell id="E8Tid6NeUANJwH3L4uXU-35" style="edgeStyle=orthogonalEdgeStyle;rounded=0;orthogonalLoop=1;jettySize=auto;html=1;exitX=0.5;exitY=0;exitDx=0;exitDy=0;endArrow=block;endFill=0;fontSize=13;" edge="1" parent="1" source="E8Tid6NeUANJwH3L4uXU-26" target="E8Tid6NeUANJwH3L4uXU-6">
          <mxGeometry relative="1" as="geometry" />
        </mxCell>
        <mxCell id="E8Tid6NeUANJwH3L4uXU-26" value="MemoryAgent" style="rounded=0;whiteSpace=wrap;html=1;fillColor=#f8cecc;strokeColor=#b85450;fontSize=13;" vertex="1" parent="1">
          <mxGeometry x="270" y="440" width="240" height="40" as="geometry" />
        </mxCell>
        <mxCell id="E8Tid6NeUANJwH3L4uXU-27" value="Memorys: List[Memory]" style="rounded=0;whiteSpace=wrap;html=1;align=left;fontSize=13;" vertex="1" parent="1">
          <mxGeometry x="270" y="520" width="240" height="80" as="geometry" />
        </mxCell>
        <mxCell id="E8Tid6NeUANJwH3L4uXU-28" value="An agent manage specific types of memory" style="rounded=0;whiteSpace=wrap;html=1;fontSize=13;align=left;" vertex="1" parent="1">
          <mxGeometry x="270" y="480" width="240" height="40" as="geometry" />
        </mxCell>
        <mxCell id="E8Tid6NeUANJwH3L4uXU-33" value="has a&amp;nbsp;" style="edgeStyle=orthogonalEdgeStyle;rounded=0;orthogonalLoop=1;jettySize=auto;html=1;exitX=0;exitY=0.5;exitDx=0;exitDy=0;entryX=1;entryY=0.5;entryDx=0;entryDy=0;fontSize=13;" edge="1" parent="1" source="E8Tid6NeUANJwH3L4uXU-29" target="E8Tid6NeUANJwH3L4uXU-26">
          <mxGeometry relative="1" as="geometry" />
        </mxCell>
        <mxCell id="E8Tid6NeUANJwH3L4uXU-36" style="edgeStyle=orthogonalEdgeStyle;rounded=0;orthogonalLoop=1;jettySize=auto;html=1;exitX=0.5;exitY=0;exitDx=0;exitDy=0;entryX=0.5;entryY=1;entryDx=0;entryDy=0;endArrow=block;endFill=0;fontSize=13;" edge="1" parent="1" source="E8Tid6NeUANJwH3L4uXU-29" target="E8Tid6NeUANJwH3L4uXU-6">
          <mxGeometry relative="1" as="geometry" />
        </mxCell>
        <mxCell id="E8Tid6NeUANJwH3L4uXU-29" value="ManageAgent" style="rounded=0;whiteSpace=wrap;html=1;fillColor=#f8cecc;strokeColor=#b85450;fontSize=13;" vertex="1" parent="1">
          <mxGeometry x="630" y="440" width="240" height="40" as="geometry" />
        </mxCell>
        <mxCell id="E8Tid6NeUANJwH3L4uXU-30" value="MemoryAgents: List[MemoryAgent]" style="rounded=0;whiteSpace=wrap;html=1;align=left;fontSize=13;" vertex="1" parent="1">
          <mxGeometry x="630" y="520" width="240" height="80" as="geometry" />
        </mxCell>
        <mxCell id="E8Tid6NeUANJwH3L4uXU-31" value="An agent manage Memory Agents" style="rounded=0;whiteSpace=wrap;html=1;align=left;fontSize=13;" vertex="1" parent="1">
          <mxGeometry x="630" y="480" width="240" height="40" as="geometry" />
        </mxCell>
        <mxCell id="E8Tid6NeUANJwH3L4uXU-37" value="Graph Builder" style="rounded=0;whiteSpace=wrap;html=1;fillColor=#ffe6cc;strokeColor=#d79b00;fontSize=13;" vertex="1" parent="1">
          <mxGeometry x="440" y="680" width="280" height="40" as="geometry" />
        </mxCell>
        <mxCell id="E8Tid6NeUANJwH3L4uXU-38" value="Memory Query" style="rounded=0;whiteSpace=wrap;html=1;fillColor=#e1d5e7;strokeColor=#9673a6;fontSize=13;" vertex="1" parent="1">
          <mxGeometry x="-200" y="120" width="160" height="40" as="geometry" />
        </mxCell>
        <mxCell id="E8Tid6NeUANJwH3L4uXU-39" value="Web Search" style="rounded=0;whiteSpace=wrap;html=1;fillColor=#e1d5e7;strokeColor=#9673a6;fontSize=13;" vertex="1" parent="1">
          <mxGeometry x="-200" y="200" width="160" height="40" as="geometry" />
        </mxCell>
        <mxCell id="E8Tid6NeUANJwH3L4uXU-40" value="..." style="rounded=0;whiteSpace=wrap;html=1;fillColor=#e1d5e7;strokeColor=#9673a6;fontSize=13;" vertex="1" parent="1">
          <mxGeometry x="-200" y="280" width="160" height="40" as="geometry" />
        </mxCell>
        <mxCell id="E8Tid6NeUANJwH3L4uXU-42" value="Neo4J" style="rounded=0;whiteSpace=wrap;html=1;fontSize=13;" vertex="1" parent="1">
          <mxGeometry x="440" y="720" width="280" height="80" as="geometry" />
        </mxCell>
        <mxCell id="E8Tid6NeUANJwH3L4uXU-43" value="TaskEvent (subject)" style="rounded=0;whiteSpace=wrap;html=1;fillColor=#008a00;strokeColor=#005700;fontSize=13;fontColor=#ffffff;" vertex="1" parent="1">
          <mxGeometry x="840" y="-360" width="280" height="40" as="geometry" />
        </mxCell>
        <mxCell id="E8Tid6NeUANJwH3L4uXU-51" value="has a" style="edgeStyle=orthogonalEdgeStyle;rounded=0;orthogonalLoop=1;jettySize=auto;html=1;exitX=1;exitY=0.5;exitDx=0;exitDy=0;" edge="1" parent="1" source="E8Tid6NeUANJwH3L4uXU-46" target="E8Tid6NeUANJwH3L4uXU-50">
          <mxGeometry relative="1" as="geometry" />
        </mxCell>
        <mxCell id="E8Tid6NeUANJwH3L4uXU-64" value="has a" style="edgeStyle=orthogonalEdgeStyle;rounded=0;orthogonalLoop=1;jettySize=auto;html=1;exitX=0.5;exitY=1;exitDx=0;exitDy=0;" edge="1" parent="1" source="E8Tid6NeUANJwH3L4uXU-46" target="E8Tid6NeUANJwH3L4uXU-9">
          <mxGeometry relative="1" as="geometry" />
        </mxCell>
        <mxCell id="E8Tid6NeUANJwH3L4uXU-46" value="&lt;div style=&quot;&quot;&gt;+ id: string; // unique identifier for the task&lt;br&gt;&lt;/div&gt;&lt;div style=&quot;&quot;&gt;+ status: TaskStatus; // current status of the task&lt;/div&gt;&lt;div style=&quot;&quot;&gt;+ messages: List[message]&lt;/div&gt;" style="rounded=0;whiteSpace=wrap;html=1;align=left;" vertex="1" parent="1">
          <mxGeometry x="840" y="-320" width="280" height="160" as="geometry" />
        </mxCell>
        <mxCell id="E8Tid6NeUANJwH3L4uXU-47" value="&lt;div style=&quot;font-size: 14px;&quot;&gt;enum TaskState:&lt;/div&gt;&lt;div style=&quot;font-size: 14px;&quot;&gt;&lt;span style=&quot;&quot;&gt;&lt;span style=&quot;white-space: pre;&quot;&gt;&amp;nbsp;&amp;nbsp;&amp;nbsp;&amp;nbsp;&lt;/span&gt;&lt;/span&gt;&lt;br&gt;&lt;/div&gt;&lt;font style=&quot;font-size: 14px;&quot;&gt;| &quot;submitted&quot;&lt;br&gt;  | &quot;working&quot;&lt;br&gt;  | &quot;input-required&quot;&lt;br&gt;  | &quot;completed&quot;&lt;br&gt;  | &quot;canceled&quot;&lt;br&gt;  | &quot;failed&quot;&lt;/font&gt;" style="rounded=0;whiteSpace=wrap;html=1;align=left;" vertex="1" parent="1">
          <mxGeometry x="1560" y="-360" width="280" height="160" as="geometry" />
        </mxCell>
        <mxCell id="E8Tid6NeUANJwH3L4uXU-48" value="TaskStatus" style="rounded=0;whiteSpace=wrap;html=1;fillColor=#1ba1e2;strokeColor=#006EAF;fontSize=13;fontColor=#ffffff;" vertex="1" parent="1">
          <mxGeometry x="1240" y="-360" width="280" height="40" as="geometry" />
        </mxCell>
        <mxCell id="E8Tid6NeUANJwH3L4uXU-50" value="state: TaskState;&lt;br&gt;message: Message; &lt;br&gt;//additional status updates for client&lt;br&gt;timestamp: string (a datetime)" style="rounded=0;whiteSpace=wrap;html=1;align=left;" vertex="1" parent="1">
          <mxGeometry x="1240" y="-320" width="280" height="160" as="geometry" />
        </mxCell>
        <mxCell id="E8Tid6NeUANJwH3L4uXU-63" value="has a" style="edgeStyle=orthogonalEdgeStyle;rounded=0;orthogonalLoop=1;jettySize=auto;html=1;exitX=1;exitY=0.5;exitDx=0;exitDy=0;" edge="1" parent="1" source="E8Tid6NeUANJwH3L4uXU-53" target="E8Tid6NeUANJwH3L4uXU-43">
          <mxGeometry relative="1" as="geometry" />
        </mxCell>
        <mxCell id="E8Tid6NeUANJwH3L4uXU-53" value="TaskManager (observer)" style="rounded=0;whiteSpace=wrap;html=1;fillColor=#008a00;strokeColor=#005700;fontSize=13;fontColor=#ffffff;" vertex="1" parent="1">
          <mxGeometry x="440" y="-360" width="280" height="40" as="geometry" />
        </mxCell>
        <mxCell id="E8Tid6NeUANJwH3L4uXU-59" value="&lt;font style=&quot;font-size: 12px;&quot;&gt;+ onReceiveTask(TaskEvent e)&lt;br&gt;&amp;nbsp; // Receive Task from another agent&lt;br&gt;+ onSendTask(TaskEvent e, Agent)&lt;br&gt;&amp;nbsp; // Send new Task to another agent&lt;br&gt;+ handleRequests(requests)&lt;br&gt;// A&amp;nbsp;TaskManager may create a task in following:&lt;br&gt;&lt;/font&gt;&lt;div style=&quot;border-color: var(--border-color);&quot;&gt;&lt;font style=&quot;border-color: var(--border-color); font-size: 12px;&quot;&gt;1. fulfill the request immediately&lt;/font&gt;&lt;/div&gt;&lt;div style=&quot;border-color: var(--border-color);&quot;&gt;&lt;font style=&quot;border-color: var(--border-color); font-size: 12px;&quot;&gt;2. reject the request&lt;/font&gt;&lt;/div&gt;&lt;div style=&quot;border-color: var(--border-color);&quot;&gt;&lt;font style=&quot;border-color: var(--border-color); font-size: 12px;&quot;&gt;3. ask the client for more information&lt;/font&gt;&lt;/div&gt;&lt;div style=&quot;border-color: var(--border-color);&quot;&gt;&lt;font style=&quot;border-color: var(--border-color); font-size: 12px;&quot;&gt;4. delegate to other agents and systems&lt;/font&gt;&lt;/div&gt;" style="rounded=0;whiteSpace=wrap;html=1;align=left;" vertex="1" parent="1">
          <mxGeometry x="440" y="-240" width="280" height="161" as="geometry" />
        </mxCell>
        <mxCell id="E8Tid6NeUANJwH3L4uXU-62" value="+ SentTasks: List[TaskEvent]&lt;br&gt;// task create by this agent&lt;br&gt;+ Received: List[TaskEvent]&lt;br&gt;// task create by other agent" style="rounded=0;whiteSpace=wrap;html=1;align=left;" vertex="1" parent="1">
          <mxGeometry x="440" y="-320" width="280" height="80" as="geometry" />
        </mxCell>
        <mxCell id="E8Tid6NeUANJwH3L4uXU-65" value="Memory Graph" style="rounded=0;whiteSpace=wrap;html=1;fillColor=#ffe6cc;strokeColor=#d79b00;fontSize=13;" vertex="1" parent="1">
          <mxGeometry x="920" y="680" width="280" height="40" as="geometry" />
        </mxCell>
        <mxCell id="E8Tid6NeUANJwH3L4uXU-66" value="&lt;div style=&quot;&quot;&gt;&lt;span style=&quot;background-color: initial;&quot;&gt;+ AddNode&lt;/span&gt;&lt;/div&gt;&lt;div style=&quot;&quot;&gt;&lt;span style=&quot;background-color: initial;&quot;&gt;+ AddEdge&lt;/span&gt;&lt;/div&gt;&lt;div style=&quot;&quot;&gt;&lt;span style=&quot;background-color: initial;&quot;&gt;+ Query&amp;nbsp;&lt;/span&gt;&lt;/div&gt;&lt;div style=&quot;&quot;&gt;&lt;span style=&quot;background-color: initial;&quot;&gt;+ Set&lt;/span&gt;&lt;/div&gt;&lt;div style=&quot;&quot;&gt;&lt;span style=&quot;background-color: initial;&quot;&gt;+ Delete&lt;/span&gt;&lt;/div&gt;" style="rounded=0;whiteSpace=wrap;html=1;align=left;" vertex="1" parent="1">
          <mxGeometry x="440" y="800" width="280" height="110" as="geometry" />
        </mxCell>
      </root>
    </mxGraphModel>
  </diagram>
</mxfile>
